# xmcd
#
# Track frame offsets:
#	150
#	19190
#	35665
#	54985
#	74305
#
# Disc length: 1246
#
# Revision: 1
# Processed by: cddbd v1.5.1PL0 Copyright (c) Steve Scherf et al.
# Submitted via: audiograbber 1.81.01
# Normalized: r0:DSETVAR1
#
DISCID=3d04dc05
DTITLE=Various Artist - Dad's Disk
DYEAR=2003
DGENRE=Memory
TTITLE0=Savage Garden - I knew I loved you
TTITLE1=Diamond Rio - One More Dday
TTITLE2=3 Doors Down - When I'm Gone
TTITLE3=3 Doors Down - When I'm Gone
TTITLE4=3 Doors Down - When I'm Gone
EXTD=
EXTT0=
EXTT1=
EXTT2=
EXTT3=
EXTT4=
PLAYORDER=
